<svg width="50" height="50" viewBox="0 0 50 50" fill="none" xmlns="http://www.w3.org/2000/svg">
<g id="Frame" clip-path="url(#clip0_6826_953)">
<g id="Group">
<path id="Vector" d="M36.093 49.0154C35.8987 49.0154 35.7124 48.9382 35.5751 48.8008C35.4377 48.6635 35.3605 48.4772 35.3605 48.2829V46.0848C35.3605 45.8946 35.4345 45.7119 35.5668 45.5753L47.5039 33.2469C48.1689 32.5602 48.5352 31.6554 48.5352 30.6994V22.5674C48.5352 22.2195 48.4856 21.8738 48.3881 21.5401L46.3092 14.4274C45.8519 12.8627 45.2647 12.6598 44.6976 12.6695C44.1273 12.6812 43.6884 12.9034 43.3554 13.3489C42.7957 14.0978 42.6237 15.4221 42.9371 16.5696L44.2313 21.3084C44.2825 21.4958 44.2572 21.6958 44.1609 21.8645C44.0645 22.0332 43.9052 22.1568 43.7178 22.2079C43.3276 22.3148 42.9248 22.0845 42.8183 21.6943L41.524 16.9554C41.0862 15.3525 41.3445 13.5925 42.182 12.472C42.7858 11.6641 43.6453 11.2259 44.6675 11.2049C44.6906 11.2044 44.7137 11.2041 44.7364 11.2041C46.8935 11.2041 47.5108 13.317 47.7152 14.0162L49.7941 21.1289C49.9307 21.5962 50 22.0805 50 22.5673V30.6993C50 32.0377 49.4873 33.3043 48.5563 34.2657L36.8254 46.3813V48.2829C36.8254 48.4772 36.7482 48.6635 36.6109 48.8008C36.4735 48.9382 36.2872 49.0154 36.093 49.0154ZM26.4648 49.0154C26.2706 49.0154 26.0843 48.9382 25.9469 48.8008C25.8096 48.6635 25.7324 48.4772 25.7324 48.2829V43.1033C25.7324 40.379 25.8353 37.9454 27.0992 35.7524C28.3947 33.5045 30.7476 31.7527 34.7182 30.0832L39.4533 25.1617C41.1529 23.3954 43.4909 22.9334 45.1394 24.038C45.8718 24.5289 46.3239 25.2535 46.4126 26.0786C46.5243 27.1177 46.0539 28.2427 45.0881 29.2465L38.9838 35.591C38.9171 35.6604 38.8374 35.7159 38.7493 35.7544C38.6611 35.7929 38.5663 35.8137 38.4701 35.8156C38.3739 35.8174 38.2783 35.8003 38.1888 35.7652C38.0992 35.7301 38.0174 35.6777 37.9481 35.611C37.8082 35.4763 37.7274 35.2915 37.7237 35.0973C37.7199 34.9031 37.7935 34.7154 37.9281 34.5754L44.0324 28.2309C44.6927 27.5448 45.0207 26.836 44.9561 26.2352C44.9133 25.8372 44.7005 25.5074 44.3236 25.2549C43.4665 24.6803 41.9071 24.7239 40.5088 26.1774L35.6684 31.2082C35.5986 31.2807 35.5147 31.338 35.4219 31.3767C27.5791 34.6391 27.1972 37.7991 27.1972 43.1034V48.283C27.1972 48.3792 27.1782 48.4744 27.1414 48.5633C27.1047 48.6521 27.0507 48.7329 26.9827 48.8009C26.9147 48.8689 26.834 48.9228 26.7451 48.9596C26.6563 48.9964 26.561 49.0154 26.4648 49.0154ZM23.5352 49.0154C23.3409 49.0154 23.1546 48.9382 23.0173 48.8008C22.8799 48.6635 22.8027 48.4772 22.8027 48.2829V43.1033C22.8027 38.9029 22.5362 36.1679 18.8426 33.6111C18.51 33.3808 18.427 32.9245 18.6573 32.5919C18.8876 32.2593 19.3437 32.1763 19.6765 32.4066C23.9384 35.357 24.2677 38.7011 24.2677 43.1033V48.2829C24.2677 48.3791 24.2487 48.4744 24.2119 48.5632C24.1751 48.6521 24.1211 48.7329 24.0531 48.8009C23.9851 48.8689 23.9043 48.9228 23.8155 48.9596C23.7266 48.9964 23.6313 49.0154 23.5352 49.0154ZM13.907 49.0154C13.7128 49.0154 13.5265 48.9382 13.3891 48.8008C13.2518 48.6635 13.1746 48.4772 13.1746 48.2829V46.3813L1.44365 34.2658C0.512695 33.3044 0 32.0378 0 30.6994V22.5674C0 22.0804 0.0692383 21.5965 0.205859 21.129L2.28477 14.0163C2.49131 13.3098 3.11924 11.1623 5.33252 11.205C6.35469 11.226 7.21416 11.6641 7.81797 12.4721C8.65547 13.5927 8.91377 15.3526 8.47598 16.9555L7.12041 21.9193V23.4496C8.30225 23.5234 9.53721 24.1123 10.5468 25.1616L15.2819 30.0831C16.0625 30.4115 16.7893 30.7482 17.4442 31.0846C17.5298 31.1285 17.6059 31.1889 17.6681 31.2623C17.7304 31.3356 17.7775 31.4205 17.807 31.5121C17.8364 31.6037 17.8475 31.7001 17.8396 31.796C17.8318 31.8919 17.8051 31.9853 17.7611 32.0708C17.7172 32.1564 17.6568 32.2325 17.5834 32.2947C17.5101 32.3569 17.4252 32.4041 17.3336 32.4335C17.242 32.4629 17.1455 32.474 17.0496 32.4661C16.9537 32.4582 16.8604 32.4315 16.7748 32.3875C16.1153 32.0488 15.3762 31.7086 14.5779 31.3765C14.4851 31.3379 14.4012 31.2805 14.3315 31.208L9.49111 26.1772C8.09277 24.7237 6.5333 24.68 5.67627 25.2547C5.29941 25.5072 5.08662 25.837 5.04385 26.235C4.9793 26.8357 5.30732 27.5445 5.96748 28.2307L12.0718 34.5752C12.1385 34.6445 12.1908 34.7263 12.2259 34.8158C12.261 34.9054 12.2781 35.001 12.2763 35.0971C12.2744 35.1933 12.2536 35.2882 12.2151 35.3763C12.1766 35.4644 12.1211 35.5441 12.0518 35.6108C11.9825 35.6775 11.9007 35.7299 11.8111 35.7649C11.7216 35.8 11.626 35.8172 11.5298 35.8153C11.4336 35.8135 11.3388 35.7927 11.2506 35.7542C11.1625 35.7157 11.0828 35.6602 11.0161 35.5908L4.91182 29.2463C3.946 28.2425 3.47559 27.1174 3.5873 26.0784C3.67598 25.2534 4.12822 24.5288 4.86055 24.0378C5.10746 23.8723 5.37458 23.7392 5.65537 23.6417V21.8208C5.65537 21.7557 5.66406 21.6907 5.68125 21.6279L7.0627 16.5694C7.37598 15.4219 7.2041 14.0975 6.64443 13.3488C6.31143 12.9032 5.87246 12.681 5.30225 12.6693C4.73623 12.6581 4.14795 12.8625 3.69062 14.4272L1.61191 21.5401C1.51435 21.8738 1.46482 22.2197 1.46484 22.5674V30.6994C1.46484 31.6554 1.83105 32.5602 2.49609 33.2469L14.4333 45.5753C14.5656 45.7119 14.6395 45.8946 14.6396 46.0848V48.2829C14.6395 48.4772 14.5623 48.6635 14.425 48.8008C14.2876 48.9382 14.1013 49.0154 13.907 49.0154ZM25 27.7107C24.8815 27.7107 24.7647 27.6819 24.6598 27.6269L13.5668 21.8083C13.4485 21.7463 13.3494 21.653 13.2803 21.5387C13.2111 21.4244 13.1746 21.2933 13.1746 21.1597V7.53567C13.1746 7.40206 13.2111 7.271 13.2803 7.15667C13.3494 7.04234 13.4485 6.9491 13.5668 6.88703L24.6598 1.06848C24.7647 1.0134 24.8815 0.984619 25 0.984619C25.1185 0.984619 25.2353 1.0134 25.3402 1.06848L28.8197 2.89348C28.9059 2.93758 28.9825 2.99832 29.045 3.0722C29.1076 3.14608 29.1549 3.23162 29.1842 3.32389C29.2135 3.41616 29.2242 3.51331 29.2157 3.60974C29.2072 3.70617 29.1797 3.79996 29.1347 3.88569C29.0897 3.97142 29.0282 4.04738 28.9537 4.10919C28.8792 4.171 28.7932 4.21742 28.7006 4.24578C28.6081 4.27414 28.5108 4.28387 28.4145 4.2744C28.3181 4.26494 28.2246 4.23647 28.1394 4.19065L25 2.54416L22.6128 3.79631L32.129 8.78782L34.5162 7.53567L30.7219 5.54543C30.5499 5.4552 30.4207 5.30034 30.3629 5.11491C30.3051 4.92949 30.3233 4.72868 30.4135 4.55666C30.4581 4.47148 30.5192 4.39594 30.593 4.33434C30.6669 4.27274 30.7522 4.2263 30.844 4.19766C30.9358 4.16902 31.0324 4.15875 31.1281 4.16743C31.2239 4.17612 31.3171 4.20358 31.4022 4.24826L36.4332 6.88703C36.5515 6.9491 36.6506 7.04234 36.7197 7.15667C36.7889 7.271 36.8254 7.40206 36.8254 7.53567V21.1597C36.8254 21.2933 36.7889 21.4244 36.7197 21.5387C36.6506 21.653 36.5515 21.7463 36.4332 21.8083L25.3402 27.6269C25.2353 27.6819 25.1185 27.7107 25 27.7107ZM25.7324 13.7971V25.7669L35.3605 20.7167V8.7469L32.8614 10.0577V13.5382C32.8614 13.6758 32.8227 13.8107 32.7496 13.9273C32.6765 14.0439 32.572 14.1375 32.4481 14.1975L29.2831 15.7296C29.1715 15.7837 29.0479 15.8085 28.924 15.8017C28.8002 15.7949 28.6801 15.7568 28.575 15.691C28.4698 15.6251 28.3832 15.5336 28.3231 15.425C28.2631 15.3165 28.2316 15.1945 28.2315 15.0704V12.4864L25.7324 13.7971ZM14.6395 20.7168L24.2676 25.767V13.7971L14.6395 8.7469V20.7168ZM29.6964 11.7179V13.9021L31.3966 13.0789V10.8261L29.6964 11.7179ZM15.4838 7.53567L25 12.5272L27.3872 11.275L17.871 6.28352L15.4838 7.53567ZM19.4478 5.45647L28.964 10.448L30.5522 9.61487L21.036 4.62336L19.4478 5.45647Z" fill="#FB8C00"/>
</g>
</g>
<defs>
<clipPath id="clip0_6826_953">
<rect width="50" height="50" fill="white"/>
</clipPath>
</defs>
</svg>
