<svg width="16" height="16" viewBox="0 0 16 16" fill="none" xmlns="http://www.w3.org/2000/svg">
<path d="M8.00065 14.6666C7.8451 14.6666 7.71176 14.6221 7.60065 14.5333C7.48954 14.4444 7.40621 14.3277 7.35065 14.1833C7.13954 13.561 6.87287 12.9777 6.55065 12.4333C6.23954 11.8888 5.80065 11.2499 5.23398 10.5166C4.66732 9.78325 4.20621 9.08325 3.85065 8.41658C3.50621 7.74992 3.33398 6.94436 3.33398 5.99992C3.33398 4.69992 3.78398 3.59992 4.68398 2.69992C5.5951 1.78881 6.70065 1.33325 8.00065 1.33325C9.30065 1.33325 10.4007 1.78881 11.3007 2.69992C12.2118 3.59992 12.6673 4.69992 12.6673 5.99992C12.6673 7.01103 12.4729 7.85547 12.084 8.53325C11.7062 9.19992 11.2673 9.86103 10.7673 10.5166C10.1673 11.3166 9.71176 11.9833 9.40065 12.5166C9.10065 13.0388 8.85065 13.5944 8.65065 14.1833C8.5951 14.3388 8.50621 14.461 8.38399 14.5499C8.27287 14.6277 8.1451 14.6666 8.00065 14.6666ZM8.00065 7.66658C8.46732 7.66658 8.86176 7.50547 9.18398 7.18325C9.50621 6.86103 9.66732 6.46658 9.66732 5.99992C9.66732 5.53325 9.50621 5.13881 9.18398 4.81658C8.86176 4.49436 8.46732 4.33325 8.00065 4.33325C7.53398 4.33325 7.13954 4.49436 6.81732 4.81658C6.4951 5.13881 6.33398 5.53325 6.33398 5.99992C6.33398 6.46658 6.4951 6.86103 6.81732 7.18325C7.13954 7.50547 7.53398 7.66658 8.00065 7.66658Z" fill="white"/>
</svg>
