<svg width="90" height="92" viewBox="0 0 90 92" fill="none" xmlns="http://www.w3.org/2000/svg">
<g id="Group">
<path id="Vector" d="M18.9576 84.7648L25.0086 90.8663C25.2807 91.1406 25.6497 91.2947 26.0345 91.2947C26.4193 91.2947 26.7883 91.1406 27.0604 90.8663L30.6882 87.2084C30.9602 86.934 31.113 86.5619 31.113 86.1739C31.113 85.7859 30.9602 85.4138 30.6882 85.1394L24.6371 79.038C24.3599 78.7736 23.9928 78.6263 23.6112 78.6263C23.2296 78.6263 22.8625 78.7736 22.5853 79.038L21.7988 79.831L19.538 77.5514C21.2117 75.3377 21.9886 72.5655 21.7113 69.796C21.4341 67.0265 20.1234 64.4667 18.0447 62.635C15.9661 60.8033 13.2747 59.8365 10.5157 59.9305C7.75672 60.0245 5.13623 61.1722 3.18489 63.1412C1.23355 65.1102 0.0972076 67.7533 0.00595326 70.5354C-0.085301 73.3174 0.875358 76.0305 2.6934 78.1252C4.51145 80.2199 7.051 81.5396 9.79782 81.8172C12.5446 82.0948 15.2934 81.3095 17.4876 79.6203L19.747 81.8999L18.9576 82.6959C18.6855 82.9703 18.5327 83.3424 18.5327 83.7304C18.5327 84.1184 18.6855 84.4905 18.9576 84.7648ZM23.6141 82.1311L27.6133 86.1739L26.0345 87.7658L22.0353 83.7304L23.6141 82.1311ZM16.5371 76.5871C15.4237 77.7087 14.0055 78.4722 12.4618 78.7812C10.9181 79.0902 9.31814 78.9308 7.86427 78.3231C6.41039 77.7154 5.16782 76.6868 4.29362 75.3672C3.41941 74.0475 2.95282 72.4962 2.95282 70.9093C2.95282 69.3223 3.41941 67.771 4.29362 66.4514C5.16782 65.1318 6.41039 64.1031 7.86427 63.4955C9.31814 62.8878 10.9181 62.7284 12.4618 63.0373C14.0055 63.3463 15.4237 64.1099 16.5371 65.2314C17.2841 65.9735 17.8773 66.858 18.2822 67.8334C18.6871 68.8087 18.8956 69.8556 18.8956 70.9129C18.8956 71.9703 18.6871 73.0171 18.2822 73.9925C17.8773 74.9679 17.2841 75.8524 16.5371 76.5945V76.5871ZM84.1956 70.8105H82.4456C83.5084 69.9617 84.2829 68.8003 84.6615 67.4876C85.04 66.1749 85.004 64.7759 84.5583 63.4848C84.1127 62.1936 83.2795 61.0744 82.1744 60.2824C81.0693 59.4903 79.7471 59.0648 78.3913 59.0648C77.0355 59.0648 75.7133 59.4903 74.6082 60.2824C73.5031 61.0744 72.6699 62.1936 72.2242 63.4848C71.7786 64.7759 71.7425 66.1749 72.1211 67.4876C72.4997 68.8003 73.2741 69.9617 74.3369 70.8105H72.5869C71.0475 70.8105 69.5712 71.4271 68.4826 72.5247C67.3941 73.6223 66.7826 75.111 66.7826 76.6632V89.8318C66.7826 90.2199 66.9354 90.592 67.2076 90.8664C67.4797 91.1408 67.8488 91.295 68.2337 91.295H88.5489C88.9338 91.295 89.3029 91.1408 89.575 90.8664C89.8471 90.592 90 90.2199 90 89.8318V76.6632C90 75.111 89.3885 73.6223 88.2999 72.5247C87.2114 71.4271 85.7351 70.8105 84.1956 70.8105ZM78.3913 62.0314C79.1088 62.0314 79.8102 62.246 80.4067 62.6479C81.0033 63.0499 81.4683 63.6212 81.7429 64.2896C82.0174 64.958 82.0893 65.6934 81.9493 66.403C81.8093 67.1126 81.4638 67.7644 80.9565 68.276C80.4491 68.7875 79.8027 69.1359 79.099 69.2771C78.3953 69.4182 77.6659 69.3458 77.003 69.0689C76.3401 68.792 75.7736 68.3232 75.3749 67.7216C74.9763 67.1201 74.7636 66.4129 74.7636 65.6894C74.7636 64.7192 75.1458 63.7888 75.8261 63.1028C76.5064 62.4168 77.4292 62.0314 78.3913 62.0314ZM87.0978 88.3686H69.6847V76.6632C69.6847 75.8871 69.9905 75.1428 70.5348 74.594C71.079 74.0452 71.8172 73.7369 72.5869 73.7369H84.1956C84.9653 73.7369 85.7035 74.0452 86.2478 74.594C86.7921 75.1428 87.0978 75.8871 87.0978 76.6632V88.3686ZM17.8533 19.532C13.2307 24.3518 9.95315 30.3177 8.35262 36.8255C6.75209 43.3334 6.88538 50.1521 8.73898 56.5914L11.5222 55.7661C9.81403 49.8235 9.69277 43.5315 11.1707 37.5265C12.6485 31.5215 15.6732 26.0166 19.9385 21.5687L17.8533 19.532ZM63.1273 79.3365L61.7313 76.7715C56.593 79.6071 50.8302 81.0944 44.9727 81.0967C41.6886 81.103 38.4205 80.6354 35.2678 79.7081L34.4494 82.5159C37.8678 83.5221 41.4116 84.0296 44.9727 84.023C51.3182 84.0208 57.5613 82.4092 63.1273 79.3365ZM81.5982 55.0726C82.334 52.0989 82.7044 49.0452 82.701 45.9804C82.7234 36.1563 78.9505 26.7097 72.1821 19.6432L70.0896 21.6726C76.3369 28.1944 79.8195 36.9132 79.7988 45.9804C79.8015 48.8045 79.4604 51.6183 78.7831 54.3585L81.5982 55.0726ZM36.729 61.8734L37.4328 61.4696C38.2736 62.0882 39.1858 62.6016 40.1493 62.9986V63.6936C40.1581 64.4246 40.454 65.1223 40.9722 65.6335C41.4905 66.1448 42.1886 66.428 42.9136 66.421H47.1218C47.8467 66.428 48.5449 66.1448 49.0631 65.6335C49.5813 65.1223 49.8773 64.4246 49.8861 63.6936V62.9971C50.8415 62.6163 51.7351 62.0936 52.5372 61.4462L53.3063 61.8734C53.936 62.2209 54.6737 62.3122 55.368 62.1286C56.0623 61.9449 56.6606 61.5002 57.0399 60.8858L59.1455 57.3742C59.3312 57.0653 59.4527 56.7216 59.5026 56.3639C59.5525 56.0062 59.5297 55.642 59.4357 55.2935C59.3411 54.9377 59.1756 54.6049 58.9493 54.3157C58.723 54.0264 58.4407 53.7866 58.1196 53.6109L57.4753 53.2524C57.5996 52.281 57.5996 51.2974 57.4753 50.326L58.121 49.9661C58.4422 49.7904 58.7245 49.5506 58.9507 49.2613C59.177 48.972 59.3425 48.6393 59.4371 48.2834C59.5315 47.9347 59.5544 47.5702 59.5045 47.2123C59.4546 46.8543 59.3329 46.5103 59.1469 46.2013L57.0443 42.6897C56.6658 42.0738 56.0674 41.6279 55.3724 41.4438C54.6775 41.2598 53.9389 41.3517 53.3092 41.7006L52.6054 42.1044C51.7646 41.4858 50.8525 40.9724 49.889 40.5754V39.8804C49.879 39.1491 49.5818 38.4517 49.0624 37.9412C48.5431 37.4307 47.8441 37.1488 47.1189 37.1574H42.9107C42.187 37.1523 41.4907 37.4364 40.974 37.9475C40.4574 38.4585 40.1624 39.1551 40.1536 39.8848V40.5813C39.1982 40.9621 38.3046 41.4848 37.5025 42.1322L36.7334 41.705C36.1037 41.3575 35.366 41.2662 34.6717 41.4498C33.9774 41.6335 33.3791 42.0782 32.9998 42.6926L30.8942 46.2043C30.7085 46.5131 30.587 46.8568 30.5371 47.2145C30.4872 47.5722 30.51 47.9364 30.604 48.2849C30.6986 48.6407 30.8641 48.9735 31.0904 49.2627C31.3167 49.552 31.599 49.7918 31.9201 49.9675L32.5659 50.3275C32.4415 51.2989 32.4415 52.2824 32.5659 53.2538L31.9201 53.6138C31.599 53.7895 31.3167 54.0293 31.0904 54.3186C30.8641 54.6079 30.6986 54.9406 30.604 55.2964C30.5097 55.6452 30.4868 56.0096 30.5367 56.3676C30.5866 56.7256 30.7082 57.0695 30.8942 57.3785L32.9968 60.8902C33.3769 61.5035 33.9752 61.947 34.6691 62.1298C35.3631 62.3126 36.1 62.2209 36.729 61.8734ZM35.3665 51.7892C35.3665 51.3744 35.3966 50.9602 35.4564 50.5499C35.5254 50.0087 35.4301 49.4592 35.1833 48.9736C34.9364 48.4881 34.5495 48.0893 34.0736 47.8298L33.4931 47.5109L35.4086 44.3153L36.092 44.6943C36.5686 44.9523 37.1081 45.0684 37.6477 45.0291C38.1872 44.9897 38.7046 44.7964 39.1393 44.4718C39.7987 43.9841 40.5163 43.582 41.2753 43.275C41.7894 43.0796 42.2331 42.7323 42.5484 42.2786C42.8637 41.825 43.036 41.2859 43.0427 40.732V40.0838H46.9723V40.732C46.9791 41.2857 47.1512 41.8245 47.4663 42.2781C47.7813 42.7318 48.2245 43.0791 48.7383 43.275C49.5007 43.582 50.2218 43.9846 50.8844 44.4733C51.319 44.7983 51.8362 44.9919 52.3758 45.0315C52.9154 45.0712 53.455 44.9552 53.9317 44.6972L54.6152 44.3182L56.5306 47.5138L55.9502 47.8328C55.4735 48.0919 55.0861 48.4908 54.8392 48.9768C54.5922 49.4627 54.4974 50.0128 54.5673 50.5543C54.6293 50.963 54.6623 51.3757 54.666 51.7892C54.666 52.204 54.6359 52.6182 54.576 53.0285C54.5071 53.5697 54.6023 54.1192 54.8492 54.6048C55.096 55.0903 55.4829 55.4891 55.9589 55.7486L56.5393 56.0675L54.6239 59.2631L53.9404 58.8842C53.4638 58.6263 52.9243 58.5102 52.3848 58.5496C51.8453 58.589 51.328 58.7821 50.8931 59.1066C50.2338 59.5943 49.5161 59.9964 48.7571 60.3034C48.243 60.4989 47.7993 60.8461 47.484 61.2998C47.1687 61.7535 46.9964 62.2925 46.9897 62.8464V63.4946H43.0514V62.8464C43.0446 62.2927 42.8725 61.7539 42.5575 61.3003C42.2425 60.8466 41.7992 60.4993 41.2855 60.3034C40.5261 59.9958 39.8079 59.5932 39.148 59.1051C38.7135 58.7801 38.1962 58.5865 37.6566 58.5469C37.117 58.5072 36.5774 58.6232 36.1007 58.8812L35.4173 59.2602L33.5018 56.0646L34.0823 55.7456C34.5589 55.4865 34.9463 55.0876 35.1933 54.6016C35.4402 54.1157 35.535 53.5656 35.4652 53.0241C35.4031 52.6154 35.3702 52.2027 35.3665 51.7892Z" fill="#FB8C00"/>
<path id="Vector_2" d="M45.0162 57.6424C46.1642 57.6424 47.2864 57.2991 48.2409 56.656C49.1954 56.0129 49.9394 55.0988 50.3787 54.0294C50.818 52.96 50.933 51.7832 50.709 50.6479C50.4851 49.5125 49.9322 48.4697 49.1205 47.6512C48.3087 46.8327 47.2745 46.2752 46.1486 46.0494C45.0226 45.8236 43.8556 45.9395 42.795 46.3825C41.7343 46.8254 40.8278 47.5756 40.19 48.5381C39.5522 49.5005 39.2118 50.6321 39.2118 51.7897C39.2118 53.3419 39.8234 54.8306 40.9119 55.9282C42.0004 57.0257 43.4768 57.6424 45.0162 57.6424ZM45.0162 48.8633C45.5902 48.8633 46.1513 49.0349 46.6285 49.3565C47.1058 49.678 47.4778 50.1351 47.6974 50.6698C47.9171 51.2045 47.9746 51.7929 47.8626 52.3606C47.7506 52.9282 47.4742 53.4496 47.0683 53.8589C46.6625 54.2682 46.1453 54.5469 45.5824 54.6598C45.0194 54.7727 44.4359 54.7147 43.9056 54.4933C43.3753 54.2718 42.922 53.8967 42.6031 53.4155C42.2842 52.9342 42.114 52.3684 42.114 51.7897C42.114 51.0135 42.4198 50.2692 42.964 49.7204C43.5083 49.1716 44.2465 48.8633 45.0162 48.8633ZM20.3477 6.43115H27.6031V9.35751H20.3477V6.43115ZM23.2498 12.2839H30.5053V15.2102H23.2498V12.2839Z" fill="#FB8C00"/>
<path id="Vector_3" d="M59.2095 5.51659C59.0735 5.3453 58.9011 5.20705 58.7049 5.11207C58.5087 5.01709 58.2939 4.96782 58.0762 4.9679H50.8208V2.04155C50.8208 1.65349 50.6679 1.28132 50.3958 1.00692C50.1236 0.732525 49.7546 0.578369 49.3697 0.578369H26.1523C25.7674 0.578369 25.3983 0.732525 25.1262 1.00692C24.8541 1.28132 24.7012 1.65349 24.7012 2.04155V4.9679H27.6034V3.50472H47.9186V25.4524H38.9451C38.6496 24.5971 38.0974 23.8557 37.3652 23.3311C36.633 22.8065 35.757 22.5247 34.8588 22.5247C33.9606 22.5247 33.0846 22.8065 32.3524 23.3311C31.6202 23.8557 31.068 24.5971 30.7725 25.4524H27.6034V16.6733H24.7012V26.9156C24.7012 27.3036 24.8541 27.6758 25.1262 27.9502C25.3983 28.2246 25.7674 28.3787 26.1523 28.3787H30.7725C31.068 29.234 31.6202 29.9754 32.3524 30.5C33.0846 31.0246 33.9606 31.3065 34.8588 31.3065C35.757 31.3065 36.633 31.0246 37.3652 30.5C38.0974 29.9754 38.6496 29.234 38.9451 28.3787H52.5389C52.8344 29.234 53.3865 29.9754 54.1187 30.5C54.8509 31.0246 55.7269 31.3065 56.6251 31.3065C57.5234 31.3065 58.3993 31.0246 59.1315 30.5C59.8638 29.9754 60.4159 29.234 60.7114 28.3787H63.8806C64.2654 28.3787 64.6345 28.2246 64.9067 27.9502C65.1788 27.6758 65.3317 27.3036 65.3317 26.9156V13.747C65.3318 13.4146 65.2198 13.0921 65.0139 12.8325L59.2095 5.51659ZM34.8588 28.3787C34.5718 28.3787 34.2912 28.2929 34.0526 28.1322C33.814 27.9714 33.628 27.7429 33.5182 27.4755C33.4083 27.2081 33.3796 26.9139 33.4356 26.6301C33.4916 26.3463 33.6298 26.0856 33.8327 25.8809C34.0357 25.6763 34.2942 25.537 34.5757 25.4805C34.8572 25.4241 35.149 25.453 35.4141 25.5638C35.6793 25.6745 35.9059 25.8621 36.0653 26.1027C36.2248 26.3433 36.3099 26.6262 36.3099 26.9156C36.3099 27.3036 36.157 27.6758 35.8849 27.9502C35.6127 28.2246 35.2437 28.3787 34.8588 28.3787ZM55.1741 7.89426H57.3797L60.8623 12.2838H55.1741V7.89426ZM56.6251 28.3787C56.3381 28.3787 56.0576 28.2929 55.819 28.1322C55.5803 27.9714 55.3943 27.7429 55.2845 27.4755C55.1747 27.2081 55.1459 26.9139 55.2019 26.6301C55.2579 26.3463 55.3961 26.0856 55.5991 25.8809C55.802 25.6763 56.0606 25.537 56.3421 25.4805C56.6235 25.4241 56.9153 25.453 57.1805 25.5638C57.4456 25.6745 57.6722 25.8621 57.8317 26.1027C57.9911 26.3433 58.0762 26.6262 58.0762 26.9156C58.0762 27.3036 57.9234 27.6758 57.6512 27.9502C57.3791 28.2246 57.01 28.3787 56.6251 28.3787ZM62.4295 25.4524H60.7114C60.4159 24.5971 59.8638 23.8557 59.1315 23.3311C58.3993 22.8065 57.5234 22.5247 56.6251 22.5247C55.7269 22.5247 54.8509 22.8065 54.1187 23.3311C53.3865 23.8557 52.8344 24.5971 52.5389 25.4524H50.8208V7.89426H52.2719V13.747C52.2719 14.135 52.4248 14.5072 52.6969 14.7816C52.969 15.056 53.3381 15.2101 53.723 15.2101H62.4295V25.4524Z" fill="#FB8C00"/>
</g>
</svg>
