<svg width="96" height="58" viewBox="0 0 96 58" fill="none" xmlns="http://www.w3.org/2000/svg">
<g id="Group 123">
<path id="Vector" d="M53.0688 1.98535C53.3907 1.28671 54.0024 0.752447 54.7058 0.629157C55.1903 0.554111 55.6797 0.591634 56.1674 0.586273C64.2688 0.586273 72.3702 0.584486 80.4716 0.586273C81.3087 0.564831 82.1215 1.10445 82.5095 1.92817C86.8443 10.7104 91.1662 19.5051 95.5091 28.2801C95.7586 29.0395 95.6491 29.9061 95.2789 30.5941C91.0358 39.1815 86.8073 47.7779 82.5658 56.3671C82.1602 57.1962 81.3167 57.7072 80.47 57.6643C71.9404 57.6572 63.4092 57.6715 54.8797 57.6572C53.3231 57.6411 52.2237 55.5737 52.9481 54.046C57.0237 45.7606 61.1139 37.4822 65.196 29.1986C63.266 25.2068 61.3328 21.2204 59.4028 17.2305C58.9022 16.2495 59.0921 14.9219 59.839 14.1607C60.5859 13.3477 61.8463 13.2405 62.701 13.9052C63.2435 14.2876 63.5074 14.9612 63.8004 15.5652C65.8044 19.7124 67.8149 23.856 69.8189 28.0032C70.1843 28.7465 70.1827 29.6864 69.8125 30.4261C66.1746 37.8146 62.5288 45.1959 58.8909 52.5808C65.6628 52.5808 72.4362 52.579 79.2081 52.5808C82.6479 45.6087 86.0861 38.6365 89.5228 31.6626C85.4326 31.6608 81.3425 31.6644 77.2523 31.6626C76.1594 31.7055 75.1324 30.7531 74.9698 29.5559C74.7799 28.457 75.3368 27.2813 76.2511 26.8185C76.8113 26.5094 77.4519 26.588 78.0572 26.5791C81.8511 26.5827 85.6451 26.5809 89.4391 26.5809C86.004 19.6087 82.5658 12.6366 79.1292 5.6644H56.4797C52.6068 13.5139 48.7372 21.3652 44.8676 29.2164C46.8619 33.3261 48.866 37.4286 50.8587 41.5401C51.4382 42.6801 51.0503 44.2686 50.0217 44.9136C48.9819 45.6533 47.4495 45.2245 46.8603 44.0131C44.6503 39.4906 42.4531 34.9575 40.2495 30.4297C39.8712 29.6756 39.876 28.7179 40.2591 27.9692C44.5263 19.305 48.8 10.6443 53.0688 1.98178V1.98535Z" fill="#262E5F"/>
<path id="Vector_2" d="M14.5387 0.734659C14.8269 0.616729 15.1343 0.591714 15.4385 0.584567C24.3464 0.58814 33.2543 0.58814 42.1605 0.584567C42.8366 0.597075 43.5657 0.495226 44.1806 0.877605C45.0756 1.38685 45.5826 2.59474 45.3444 3.68112C45.1368 4.81217 44.1597 5.69307 43.1166 5.66627C33.8353 5.66806 24.5524 5.67163 15.2711 5.66449C14.1235 5.67878 13.0901 4.5781 13.0402 3.30946C12.9468 2.20342 13.5971 1.09917 14.5387 0.734659Z" fill="#FB8C00"/>
<path id="Vector_3" d="M10.5199 13.7803C11.0543 13.5248 11.6483 13.5909 12.2149 13.5838C16.2406 13.5909 20.2664 13.5784 24.2922 13.5891C25.2322 13.5784 26.1207 14.3003 26.4185 15.2848C26.7904 16.3926 26.3461 17.7363 25.4205 18.3188C24.7944 18.762 24.0298 18.6601 23.3248 18.669C19.3521 18.6637 15.3795 18.6726 11.4068 18.6655C10.499 18.6869 9.62817 18.0329 9.29175 17.1002C8.79758 15.8602 9.3835 14.2771 10.5199 13.7803Z" fill="#FB8C00"/>
<path id="Vector_4" d="M31.2724 13.7733C31.765 13.541 32.309 13.5874 32.8322 13.5821C34.2213 13.5982 35.6104 13.566 36.9996 13.5946C38.1907 13.6232 39.2048 14.8507 39.1565 16.1658C39.1694 17.5113 38.0781 18.712 36.8628 18.6656C35.2418 18.6638 33.6193 18.6816 31.9984 18.6566C30.8958 18.6227 29.9316 17.5595 29.8624 16.3445C29.7626 15.2653 30.3646 14.1717 31.2724 13.7733Z" fill="#FB8C00"/>
<path id="Vector_5" d="M1.83317 26.6362C2.3386 26.5487 2.85369 26.5916 3.36395 26.5844C12.275 26.588 21.1845 26.5826 30.0956 26.5844C31.2867 26.5505 32.3604 27.7119 32.3732 29.0324C32.4537 30.4189 31.3447 31.7054 30.0924 31.6625C20.861 31.6679 11.6296 31.6608 2.39977 31.6643C1.49514 31.7162 0.59534 31.1229 0.221899 30.2045C-0.428403 28.7929 0.423106 26.8953 1.83317 26.6344V26.6362Z" fill="#FB8C00"/>
<path id="Vector_6" d="M8.71341 39.6123C10.4196 39.5498 12.1291 39.5945 13.8353 39.5891C15.0184 39.5802 16.0679 40.7595 16.0567 42.0692C16.1227 43.42 15.0539 44.6708 13.8337 44.6601C12.2241 44.6708 10.6144 44.6672 9.00476 44.6601C7.84097 44.678 6.79791 43.5523 6.7625 42.2658C6.66914 40.9953 7.57216 39.7571 8.71341 39.6105V39.6123Z" fill="#FB8C00"/>
<path id="Vector_7" d="M21.2759 39.6194C25.6059 39.5354 29.9423 39.6122 34.2755 39.5801C35.0417 39.5247 35.8353 39.8624 36.3069 40.5521C36.9685 41.4545 36.9524 42.866 36.2699 43.7487C35.8272 44.3545 35.1254 44.6904 34.4252 44.6654C30.1371 44.66 25.8457 44.6743 21.5576 44.6582C20.4067 44.6457 19.3974 43.52 19.3684 42.2496C19.288 41.0024 20.1588 39.7927 21.2759 39.6194Z" fill="#FB8C00"/>
<path id="Vector_8" d="M14.5363 52.731C15.082 52.5183 15.6711 52.5916 16.2393 52.5809C24.88 52.5844 33.5206 52.5844 42.1629 52.5809C42.9114 52.5827 43.7388 52.488 44.3826 53.0079C45.3001 53.6601 45.6671 55.0806 45.1971 56.1742C44.8237 57.1247 43.8965 57.7287 42.9677 57.6662C33.7363 57.659 24.5049 57.6715 15.2735 57.6608C14.1226 57.6751 13.086 56.5708 13.0393 55.2968C12.9508 54.1962 13.5995 53.0955 14.5363 52.731Z" fill="#FB8C00"/>
</g>
</svg>
