<svg width="53" height="29" viewBox="0 0 53 29" fill="none" xmlns="http://www.w3.org/2000/svg">
<path d="M29.055 0.711053C29.2313 0.35742 29.5661 0.0869947 29.9513 0.0245889C30.2165 -0.0133972 30.4844 0.00559586 30.7515 0.00288257C35.1869 0.00288257 39.6224 0.00197814 44.0579 0.00288257C44.5162 -0.00797061 44.9612 0.265168 45.1736 0.682111C47.5469 5.12739 49.9131 9.57901 52.2908 14.0207C52.4274 14.4051 52.3675 14.8437 52.1648 15.1919C49.8417 19.5386 47.5266 23.8898 45.2044 28.2374C44.9824 28.6571 44.5206 28.9158 44.057 28.894C39.3871 28.8904 34.7163 28.8977 30.0464 28.8904C29.1942 28.8823 28.5923 27.8359 28.9889 27.0626C31.2203 22.8687 33.4596 18.6785 35.6946 14.4855C34.6379 12.465 33.5795 10.4473 32.5228 8.42766C32.2488 7.93113 32.3527 7.25914 32.7617 6.87385C33.1706 6.46233 33.8606 6.40807 34.3286 6.74452C34.6256 6.93806 34.7701 7.27903 34.9305 7.58473C36.0277 9.68392 37.1284 11.7813 38.2256 13.8805C38.4256 14.2567 38.4248 14.7325 38.2221 15.1069C36.2304 18.8467 34.2343 22.5829 32.2426 26.3209C35.9501 26.3209 39.6585 26.32 43.3661 26.3209C45.2494 22.7918 47.1318 19.2628 49.0133 15.7328C46.774 15.7319 44.5347 15.7337 42.2953 15.7328C41.6969 15.7545 41.1347 15.2724 41.0457 14.6664C40.9417 14.1102 41.2466 13.5151 41.7472 13.2808C42.0539 13.1244 42.4046 13.1642 42.736 13.1596C44.8131 13.1615 46.8903 13.1606 48.9675 13.1606C47.0868 9.63146 45.2044 6.10237 43.3229 2.57328H30.9224C28.8021 6.54645 26.6835 10.5205 24.5649 14.4946C25.6568 16.5748 26.754 18.6514 27.845 20.7325C28.1623 21.3095 27.9499 22.1135 27.3867 22.44C26.8174 22.8145 25.9785 22.5974 25.6559 21.9842C24.4459 19.6951 23.243 17.4005 22.0365 15.1087C21.8294 14.727 21.832 14.2423 22.0418 13.8633C24.3781 9.47771 26.7179 5.09393 29.055 0.709244V0.711053Z" fill="white"/>
<path d="M7.96011 0.07775C8.11786 0.0180575 8.28619 0.00539548 8.45275 0.00177775C13.3297 0.00358662 18.2067 0.00358662 23.0829 0.00177775C23.453 0.00810877 23.8522 -0.0434438 24.1889 0.150105C24.6788 0.407868 24.9564 1.01926 24.826 1.56916C24.7123 2.14166 24.1774 2.58755 23.6063 2.57398C18.5249 2.57489 13.4425 2.57669 8.36109 2.57308C7.73274 2.58031 7.16696 2.02318 7.13964 1.38104C7.08853 0.821193 7.44456 0.262254 7.96011 0.07775Z" fill="white"/>
<path d="M5.75929 6.68143C6.05187 6.55209 6.37707 6.58556 6.68728 6.58194C8.89135 6.58556 11.0954 6.57923 13.2995 6.58465C13.8142 6.57923 14.3006 6.94462 14.4637 7.44296C14.6673 8.00371 14.424 8.68384 13.9173 8.97868C13.5745 9.20298 13.1559 9.15143 12.7699 9.15595C10.5949 9.15324 8.41987 9.15776 6.24487 9.15414C5.74783 9.165 5.27106 8.83397 5.08687 8.36186C4.81632 7.73418 5.13711 6.93286 5.75929 6.68143Z" fill="white"/>
<path d="M17.1217 6.67761C17.3913 6.56003 17.6892 6.58355 17.9756 6.58084C18.7362 6.58897 19.4967 6.5727 20.2572 6.58717C20.9094 6.60164 21.4646 7.22298 21.4382 7.88864C21.4452 8.56968 20.8477 9.17746 20.1823 9.15394C19.2949 9.15304 18.4066 9.16208 17.5191 9.14942C16.9154 9.13224 16.3876 8.5941 16.3497 7.97909C16.295 7.43281 16.6246 6.8793 17.1217 6.67761Z" fill="white"/>
<path d="M1.00365 13.1886C1.28037 13.1443 1.56238 13.166 1.84174 13.1624C6.7205 13.1642 11.5984 13.1614 16.4771 13.1624C17.1293 13.1452 17.7171 13.7331 17.7241 14.4014C17.7682 15.1033 17.161 15.7545 16.4754 15.7327C11.4212 15.7355 6.36711 15.7318 1.31386 15.7337C0.818579 15.7599 0.325945 15.4596 0.121488 14.9947C-0.234548 14.2802 0.231648 13.3206 1.00365 13.1886Z" fill="white"/>
<path d="M4.77096 19.7568C5.70512 19.7252 6.64104 19.7478 7.57519 19.7451C8.22293 19.7405 8.79753 20.3375 8.79136 21.0004C8.82749 21.6842 8.24232 22.3173 7.57431 22.3118C6.69303 22.3173 5.81175 22.3154 4.93048 22.3118C4.29331 22.3209 3.72224 21.7511 3.70285 21.0999C3.65174 20.4568 4.14614 19.8301 4.77096 19.7559V19.7568Z" fill="white"/>
<path d="M11.6487 19.7602C14.0193 19.7177 16.3935 19.7566 18.7659 19.7403C19.1854 19.7122 19.6199 19.8832 19.8781 20.2323C20.2403 20.689 20.2315 21.4035 19.8578 21.8503C19.6155 22.1569 19.2312 22.3269 18.8479 22.3143C16.5001 22.3116 14.1507 22.3188 11.8029 22.3107C11.1728 22.3043 10.6203 21.7345 10.6044 21.0915C10.5603 20.4602 11.0371 19.8479 11.6487 19.7602Z" fill="white"/>
<path d="M7.95877 26.3967C8.25753 26.2891 8.58008 26.3262 8.89117 26.3207C13.6219 26.3226 18.3526 26.3226 23.0842 26.3207C23.494 26.3216 23.9469 26.2737 24.2994 26.5369C24.8018 26.867 25.0027 27.586 24.7454 28.1396C24.5409 28.6207 24.0333 28.9264 23.5248 28.8948C18.4707 28.8911 13.4165 28.8975 8.3624 28.892C7.73229 28.8993 7.16474 28.3403 7.13919 27.6955C7.09072 27.1384 7.44587 26.5812 7.95877 26.3967Z" fill="white"/>
</svg>
