<svg width="35" height="24" viewBox="0 0 35 24" fill="none" xmlns="http://www.w3.org/2000/svg">
<g id="Payment method icon">
<rect x="0.658203" y="0.5" width="33" height="23" rx="3.5" fill="white"/>
<rect x="0.658203" y="0.5" width="33" height="23" rx="3.5" stroke="#E4E7EC"/>
<path id="visa-logo" fill-rule="evenodd" clip-rule="evenodd" d="M10.9083 15.8583H8.84852L7.30396 9.79247C7.23065 9.51344 7.07499 9.26676 6.84602 9.1505C6.2746 8.85833 5.64492 8.6258 4.95801 8.50853V8.27499H8.27609C8.73403 8.27499 9.07749 8.6258 9.13473 9.03323L9.93613 13.4087L11.9949 8.27499H13.9974L10.9083 15.8583ZM15.1422 15.8583H13.197L14.7988 8.27499H16.744L15.1422 15.8583ZM19.2607 10.3758C19.318 9.96738 19.6614 9.73384 20.0621 9.73384C20.6918 9.6752 21.3777 9.79248 21.9501 10.0836L22.2936 8.45091C21.7212 8.21737 21.0915 8.1001 20.5201 8.1001C18.632 8.1001 17.2582 9.1505 17.2582 10.6083C17.2582 11.7174 18.2313 12.2997 18.9183 12.6505C19.6614 13.0003 19.9476 13.2338 19.8904 13.5836C19.8904 14.1083 19.318 14.3419 18.7465 14.3419C18.0596 14.3419 17.3727 14.167 16.744 13.8748L16.4006 15.5086C17.0875 15.7997 17.8306 15.917 18.5176 15.917C20.6345 15.9746 21.9501 14.9252 21.9501 13.3501C21.9501 11.3666 19.2607 11.2503 19.2607 10.3758ZM28.758 15.8583L27.2135 8.27499H25.5544C25.211 8.27499 24.8675 8.50853 24.753 8.85833L21.8929 15.8583H23.8954L24.2951 14.7503H26.7555L26.9845 15.8583H28.758ZM25.8406 10.3172L26.4121 13.1752H24.8103L25.8406 10.3172Z" fill="#172B85"/>
</g>
</svg>
