<svg width="23" height="26" viewBox="0 0 23 26" fill="none" xmlns="http://www.w3.org/2000/svg">
<g id="paypal">
<path id="vector" d="M20.0067 6.61723C20.3184 4.58517 20.0067 3.23046 18.9158 1.97996C17.7211 0.573146 15.5395 0 12.7344 0H4.68304C4.11165 0 3.64415 0.416834 3.54026 0.98998L0.163867 22.3527C0.111923 22.7695 0.42359 23.1343 0.839146 23.1343H5.82582L5.46221 25.3226C5.41027 25.6874 5.66999 26 6.08555 26H10.2931C10.8125 26 11.2281 25.6353 11.28 25.1663L12.1631 19.6433C12.215 19.1743 12.6825 18.8096 13.15 18.8096H13.7733C17.825 18.8096 21.0456 17.1423 21.9806 12.3487C22.3442 10.3687 22.1884 8.6493 21.1495 7.50301C20.8378 7.13828 20.4742 6.87776 20.0067 6.61723Z" fill="#009CDE"/>
<path id="vector_2" d="M20.0067 6.61723C20.3184 4.58517 20.0067 3.23046 18.9158 1.97996C17.7211 0.573146 15.5395 0 12.7344 0H4.68304C4.11165 0 3.64415 0.416834 3.54026 0.98998L0.163867 22.3527C0.111923 22.7695 0.42359 23.1343 0.839146 23.1343H5.82582L7.02055 15.4228C7.12444 14.8497 7.59194 14.4329 8.16333 14.4329H10.5528C15.2278 14.4329 18.8639 12.5571 19.9028 7.03407C19.9547 6.92986 19.9547 6.77355 20.0067 6.61723Z" fill="#012169"/>
<path id="vector_3" d="M8.42305 6.66934C8.47499 6.30461 8.9425 5.83567 9.41 5.83567H15.7472C16.4745 5.83567 17.2017 5.88777 17.825 5.99198C18.3964 6.09619 19.4353 6.35671 19.9547 6.66934C20.2664 4.63727 19.9547 3.28257 18.8639 2.03206C17.7211 0.573146 15.5395 0 12.7344 0H4.68304C4.11165 0 3.64415 0.416834 3.54026 0.98998L0.163867 22.3527C0.111923 22.7695 0.42359 23.1343 0.839146 23.1343H5.82582L8.42305 6.66934Z" fill="#003087"/>
</g>
</svg>
