<svg width="90" height="90" viewBox="0 0 90 90" fill="none" xmlns="http://www.w3.org/2000/svg">
<g id="Frame">
<g id="Group">
<path id="Vector" d="M88.0887 58.8556C87.4678 57.0226 85.9849 55.6916 83.9132 55.1074C81.6839 54.4787 78.7849 54.6792 75.296 55.7026L59.4146 60.3619C59.3474 60.2254 59.2758 60.0912 59.1997 59.9595C58.3129 58.4234 56.8863 57.326 55.1826 56.8695L43.8996 53.8462C35.6656 48.0765 31.2532 49.734 24.7644 52.9066C21.656 54.4266 18.5735 55.8937 15.6603 57.2704L15.0489 55.8023C14.2379 53.8539 11.9919 52.9276 10.0423 53.7363L3.94784 56.2672C2.99809 56.6613 2.26034 57.3986 1.87098 58.3427C1.48127 59.2868 1.48461 60.3297 1.87994 61.2791L12.2004 86.0611C12.8127 87.531 14.2414 88.4194 15.7435 88.4194C16.2321 88.4194 16.7285 88.3253 17.2072 88.1267L23.3019 85.596C24.2516 85.2015 24.9892 84.4643 25.3786 83.52C25.7681 82.5759 25.7648 81.5331 25.3694 80.5841L24.6781 78.924L28.6504 76.9927C30.1018 76.2871 31.5604 76.1632 33.1092 76.6129L45.7862 80.2935C46.7198 80.5646 47.6845 80.6806 48.6632 80.6804C52.033 80.6804 55.5662 79.3055 58.5363 78.1495C58.7977 78.0478 59.0542 77.9481 59.305 77.8514L83.097 68.683C86.9489 67.1987 89.3281 62.5147 88.0887 58.8556ZM23.1038 82.5817C22.9651 82.9178 22.7002 83.1811 22.3581 83.3233L16.2636 85.854C15.5659 86.1432 14.7624 85.8122 14.4722 85.1151L4.15174 60.3329C4.00918 59.9908 4.00725 59.6175 4.14594 59.2814C4.28446 58.9454 4.54936 58.6823 4.89161 58.5401L10.9861 56.0092C11.1521 55.9401 11.33 55.9045 11.5098 55.9044C12.0471 55.9044 12.5583 56.2224 12.7773 56.7483L23.0978 81.5303C23.2402 81.8722 23.2423 82.2456 23.1038 82.5817ZM82.2125 66.3866L58.4203 75.555C58.167 75.6527 57.9079 75.7536 57.6439 75.8563C54.1575 77.2133 49.8178 78.9022 46.4727 77.9303L33.7957 74.2497C31.664 73.6309 29.5708 73.8088 27.5744 74.7798L23.7304 76.6489L16.6076 59.545C19.5595 58.15 22.6872 56.6619 25.8456 55.1176C31.9104 52.152 35.4125 50.844 42.6582 55.9819C42.7772 56.0663 42.9105 56.1291 43.0514 56.1669L54.5459 59.2467C55.6145 59.5331 56.5105 60.2232 57.0687 61.1902C57.627 62.157 57.7766 63.2781 57.4903 64.3467C57.2039 65.4151 56.5138 66.311 55.5468 66.8693C54.5797 67.4276 53.4589 67.5772 52.3903 67.2908L37.1146 63.1978C36.7998 63.1146 36.4649 63.1596 36.1832 63.3229C35.9015 63.4862 35.696 63.7545 35.6117 64.069C35.5275 64.3835 35.5713 64.7186 35.7336 65.0008C35.8959 65.2831 36.1635 65.4895 36.4777 65.5749L51.7533 69.6679C53.4564 70.1243 55.2408 69.8875 56.7773 69.0005C58.3135 68.1135 59.4109 66.687 59.8674 64.9833C60.0646 64.2508 60.1338 63.4897 60.0721 62.7335L75.9888 58.0641C81.2473 56.5214 84.8998 57.1122 85.7577 59.6452C86.5706 62.0448 84.8144 65.384 82.2125 66.3866ZM37.7901 19.9985H38.1515V45.3046C38.1515 45.631 38.2812 45.944 38.5119 46.1747C38.7427 46.4055 39.0557 46.5351 39.382 46.5351H78.6891C79.0155 46.5351 79.3285 46.4055 79.5592 46.1747C79.79 45.944 79.9196 45.631 79.9196 45.3046V19.9985H80.2808C80.6072 19.9985 80.9202 19.8688 81.1509 19.6381C81.3817 19.4073 81.5113 19.0943 81.5113 18.768V11.8558C81.5113 11.5294 81.3817 11.2164 81.1509 10.9857C80.9202 10.7549 80.6072 10.6253 80.2808 10.6253H72.8806C73.0783 10.226 73.2361 9.80831 73.3519 9.37811C73.7773 7.79081 73.5563 6.12827 72.73 4.69671C71.9036 3.26532 70.5742 2.2428 68.9867 1.81741C66.9666 1.27636 63.9719 1.41101 61.1762 5.12632C60.2718 6.32813 59.5701 7.66003 59.0421 8.87433C57.0823 4.34602 53.6936 0.583076 49.0842 1.81741C45.7964 2.6986 43.8382 6.0903 44.7192 9.37811C44.8352 9.80825 44.993 10.226 45.1905 10.6253H37.7901C37.4638 10.6253 37.1508 10.7549 36.92 10.9857C36.6893 11.2164 36.5597 11.5294 36.5597 11.8558V18.768C36.5597 19.0943 36.6893 19.4073 36.92 19.6381C37.1508 19.8688 37.4638 19.9985 37.7901 19.9985ZM40.6125 19.9985H54.5837V44.0742H40.6125V19.9985ZM61.8301 13.0862V17.5375H56.241V13.0862H61.8301ZM61.0261 19.9985V44.0742H57.0447V19.9985H61.0261ZM77.4587 44.0742H63.4872V19.9985H77.4587V44.0742ZM79.0502 17.5375H64.2909V13.0862H79.0502V17.5375ZM63.1425 6.60604C64.7465 4.47435 66.4498 3.68544 68.3497 4.19468C69.3023 4.44974 70.1008 5.06515 70.5986 5.92718C71.0963 6.78921 71.2299 7.7887 70.9746 8.74126C70.7691 9.50837 70.4044 10.1273 69.8681 10.6253H60.985C61.4698 9.38391 62.1789 7.88661 63.1425 6.60604ZM47.0963 8.74126C46.5663 6.76407 47.7441 4.72431 49.7211 4.19468C53.4747 3.1878 55.913 7.7096 57.068 10.6253H48.2032C47.6666 10.1275 47.3018 9.50854 47.0963 8.74126ZM39.0206 13.0862H53.7801V17.5375H39.0206V13.0862Z" fill="#FB8C00"/>
</g>
</g>
</svg>
