<svg width="50" height="50" viewBox="0 0 50 50" fill="none" xmlns="http://www.w3.org/2000/svg">
<g id="Frame" clip-path="url(#clip0_6826_940)">
<g id="Group">
<path id="Vector" d="M15.8335 49.9999H34.1667C36.0077 49.9999 37.5 48.5076 37.5 46.6667V35.7775L44.84 33.7693C45.3647 33.6225 45.8271 33.3084 46.1568 32.8747C46.4866 32.441 46.6656 31.9115 46.6667 31.3667V17.0293L47.1167 16.9034C49.2155 16.3151 50.44 14.1368 49.8517 12.038C49.7569 11.6997 49.6173 11.3756 49.4367 11.0742L46.5483 6.24094L46.5408 6.24592C46.4352 6.06284 46.2634 5.92715 46.0608 5.86672L25.901 0.124363C25.311 -0.0414542 24.6867 -0.0414542 24.0968 0.124363L3.93855 5.86682C3.73631 5.92751 3.5649 6.06315 3.45935 6.24602L3.45183 6.24104L0.564342 11.0743C-0.558309 12.9427 0.0461802 15.3673 1.91453 16.4899C2.21737 16.6719 2.54326 16.8124 2.88347 16.9076L3.33347 17.0335V31.3667C3.33481 31.9125 3.51473 32.4429 3.84576 32.8768C4.17679 33.3108 4.64073 33.6245 5.16677 33.77L12.5 35.7775V46.6667C12.5001 48.5076 13.9925 49.9999 15.8335 49.9999ZM35.8334 46.6667C35.8334 47.5872 35.0872 48.3334 34.1667 48.3334H15.8335C14.913 48.3334 14.1668 47.5872 14.1668 46.6667V25.8334C14.1668 24.9129 14.913 24.1667 15.8335 24.1667H34.1667C35.0872 24.1667 35.8334 24.9129 35.8334 25.8334V46.6667ZM45 31.3667C44.9989 31.5467 44.9395 31.7216 44.8308 31.865C44.722 32.0085 44.5697 32.1128 44.3967 32.1625L37.5 34.0491V25.8333C37.5 23.9924 36.0077 22.5001 34.1667 22.5001H25.8335V15.5109L28.0618 19.2259C28.4131 19.8105 28.9097 20.2942 29.5033 20.63C30.0969 20.9659 30.7673 21.1425 31.4493 21.1426C31.8074 21.1431 32.1638 21.094 32.5085 20.9968L45.0001 17.5002V31.3667H45ZM48.1667 13.9501C48.0381 14.2756 47.8357 14.5668 47.5754 14.8008C47.3151 15.0348 47.004 15.2051 46.6667 15.2984L32.0585 19.3909C31.5775 19.525 31.0657 19.4976 30.6018 19.3129C30.1379 19.1282 29.7473 18.7964 29.4901 18.3684L26.276 13.0093L45.4426 7.6426L48.0042 11.9301C48.1858 12.2304 48.295 12.569 48.3232 12.9188C48.3514 13.2687 48.2978 13.6203 48.1667 13.9459V13.9501ZM24.551 1.72934C24.8439 1.64682 25.1539 1.64682 25.4468 1.72934L42.7667 6.66184L25.0001 11.6359L7.23355 6.66184L24.551 1.72934ZM1.83358 13.946C1.70291 13.6198 1.64995 13.2677 1.67888 12.9176C1.70782 12.5674 1.81785 12.2288 2.00027 11.9285L4.55524 7.6426L23.7219 13.0093L20.5077 18.3684C20.2508 18.7967 19.8603 19.1288 19.3963 19.3135C18.9322 19.4982 18.4204 19.5254 17.9394 19.3909L3.33357 15.2984C2.99587 15.2046 2.68459 15.0336 2.42428 14.7989C2.16397 14.5642 1.96175 14.2722 1.83358 13.946ZM5.6069 32.1667C5.43256 32.1175 5.27902 32.0127 5.16955 31.8684C5.06009 31.724 5.00066 31.5479 5.00026 31.3667V17.5001L17.4919 21.0001C19.2033 21.4773 21.0228 20.7534 21.9386 19.2309L24.1669 15.5109V22.5001H15.8335C13.9926 22.5001 12.5002 23.9924 12.5002 25.8333V34.0491L5.6069 32.1667Z" fill="#FB8C00"/>
<path id="Vector_2" d="M20.2443 26.9108L18.3335 28.8216L18.0893 28.5775C17.9319 28.4268 17.7218 28.3438 17.504 28.3462C17.2861 28.3486 17.0778 28.4362 16.9238 28.5902C16.7697 28.7443 16.6821 28.9526 16.6797 29.1704C16.6774 29.3883 16.7604 29.5984 16.911 29.7558L17.7443 30.5891C17.9006 30.7453 18.1125 30.833 18.3335 30.833C18.5544 30.833 18.7664 30.7453 18.9226 30.5891L21.4226 28.0891C21.5733 27.9317 21.6563 27.7216 21.6539 27.5037C21.6515 27.2859 21.5639 27.0776 21.4099 26.9235C21.2558 26.7695 21.0475 26.6819 20.8297 26.6795C20.6118 26.6771 20.4017 26.7601 20.2443 26.9108ZM32.5001 28.3333H24.1668C23.9458 28.3333 23.7338 28.4211 23.5775 28.5774C23.4213 28.7337 23.3335 28.9456 23.3335 29.1666C23.3335 29.3876 23.4213 29.5996 23.5775 29.7559C23.7338 29.9121 23.9458 29.9999 24.1668 29.9999H32.5001C32.9603 29.9999 33.3334 29.6269 33.3334 29.1666C33.3334 28.7064 32.9603 28.3333 32.5001 28.3333ZM20.2443 31.9108L18.3335 33.8216L18.0893 33.5775C17.9319 33.4268 17.7218 33.3438 17.504 33.3462C17.2861 33.3486 17.0778 33.4362 16.9238 33.5902C16.7697 33.7443 16.6821 33.9526 16.6797 34.1704C16.6774 34.3883 16.7604 34.5984 16.911 34.7558L17.7443 35.5891C17.9006 35.7453 18.1125 35.833 18.3335 35.833C18.5544 35.833 18.7664 35.7453 18.9226 35.5891L21.4226 33.0891C21.5733 32.9317 21.6563 32.7216 21.6539 32.5037C21.6515 32.2859 21.5639 32.0776 21.4099 31.9235C21.2558 31.7695 21.0475 31.6819 20.8297 31.6795C20.6118 31.6771 20.4017 31.7601 20.2443 31.9108ZM32.5001 33.3333H24.1668C23.9458 33.3333 23.7338 33.4211 23.5775 33.5774C23.4213 33.7337 23.3335 33.9456 23.3335 34.1666C23.3335 34.3876 23.4213 34.5996 23.5775 34.7559C23.7338 34.9121 23.9458 34.9999 24.1668 34.9999H32.5001C32.7211 34.9999 32.933 34.9121 33.0893 34.7559C33.2456 34.5996 33.3334 34.3876 33.3334 34.1666C33.3334 33.9456 33.2456 33.7337 33.0893 33.5774C32.933 33.4211 32.7211 33.3333 32.5001 33.3333ZM20.2443 36.9108L18.3335 38.8216L18.0893 38.5775C17.9319 38.4268 17.7218 38.3438 17.504 38.3462C17.2861 38.3486 17.0778 38.4362 16.9238 38.5902C16.7697 38.7443 16.6821 38.9526 16.6797 39.1704C16.6774 39.3883 16.7604 39.5984 16.911 39.7558L17.7443 40.5891C17.9006 40.7453 18.1125 40.833 18.3335 40.833C18.5544 40.833 18.7664 40.7453 18.9226 40.5891L21.4226 38.0891C21.5733 37.9317 21.6563 37.7216 21.6539 37.5037C21.6515 37.2859 21.5639 37.0776 21.4099 36.9235C21.2558 36.7695 21.0475 36.6819 20.8297 36.6795C20.6118 36.6771 20.4017 36.7601 20.2443 36.9108ZM32.5001 38.3333H24.1668C23.9458 38.3333 23.7338 38.4211 23.5775 38.5774C23.4213 38.7337 23.3335 38.9456 23.3335 39.1666C23.3335 39.3876 23.4213 39.5996 23.5775 39.7559C23.7338 39.9121 23.9458 39.9999 24.1668 39.9999H32.5001C32.9603 39.9999 33.3334 39.6269 33.3334 39.1666C33.3334 38.7064 32.9603 38.3333 32.5001 38.3333ZM20.2443 41.9108L18.3335 43.8216L18.0893 43.5775C17.9319 43.4268 17.7218 43.3438 17.504 43.3462C17.2861 43.3486 17.0778 43.4362 16.9238 43.5902C16.7697 43.7443 16.6821 43.9526 16.6797 44.1704C16.6774 44.3883 16.7604 44.5984 16.911 44.7558L17.7443 45.5891C17.9006 45.7453 18.1125 45.833 18.3335 45.833C18.5544 45.833 18.7664 45.7453 18.9226 45.5891L21.4226 43.0891C21.5733 42.9317 21.6563 42.7216 21.6539 42.5037C21.6515 42.2859 21.5639 42.0776 21.4099 41.9235C21.2558 41.7695 21.0475 41.6819 20.8297 41.6795C20.6118 41.6771 20.4017 41.7601 20.2443 41.9108ZM32.5001 43.3333H24.1668C23.9458 43.3333 23.7338 43.4211 23.5775 43.5774C23.4213 43.7337 23.3335 43.9456 23.3335 44.1666C23.3335 44.3876 23.4213 44.5996 23.5775 44.7559C23.7338 44.9121 23.9458 44.9999 24.1668 44.9999H32.5001C32.9603 44.9999 33.3334 44.6269 33.3334 44.1666C33.3334 43.7064 32.9603 43.3333 32.5001 43.3333Z" fill="#FB8C00"/>
</g>
</g>
<defs>
<clipPath id="clip0_6826_940">
<rect width="50" height="50" fill="white"/>
</clipPath>
</defs>
</svg>
