<svg width="50" height="50" viewBox="0 0 50 50" fill="none" xmlns="http://www.w3.org/2000/svg">
<g id="Frame" clip-path="url(#clip0_6795_900)">
<g id="Group">
<path id="Vector" d="M48.3333 1.66678H43.3333C43.0581 1.66751 42.7874 1.73639 42.5452 1.86726C42.3031 1.99813 42.0972 2.18693 41.9458 2.41678L25.2233 0.0409464C24.4617 -0.0614838 23.6866 0.0349783 22.9733 0.320946L12.8333 4.40928C12.2592 4.64244 11.7398 4.99252 11.3083 5.43726C10.8767 5.88201 10.5424 6.41168 10.3267 6.99261L8.5875 11.6668H6.66667C6.00363 11.6668 5.36774 11.9302 4.8989 12.399C4.43006 12.8679 4.16667 13.5037 4.16667 14.1668V41.6668H1.66667C1.22464 41.6668 0.800716 41.8424 0.488155 42.1549C0.175595 42.4675 0 42.8914 0 43.3335L0 48.3335C0 48.7755 0.175595 49.1994 0.488155 49.512C0.800716 49.8245 1.22464 50.0001 1.66667 50.0001H36.6667C37.1087 50.0001 37.5326 49.8245 37.8452 49.512C38.1577 49.1994 38.3333 48.7755 38.3333 48.3335V43.3335C38.3333 42.8914 38.1577 42.4675 37.8452 42.1549C37.5326 41.8424 37.1087 41.6668 36.6667 41.6668H34.1667V17.8193L36.4308 16.8434C36.7 16.7263 36.9906 16.6661 37.2842 16.6668H41.8983C42.0434 16.9193 42.2524 17.1292 42.5043 17.2755C42.7562 17.4218 43.0421 17.4992 43.3333 17.5001H48.3333C48.7754 17.5001 49.1993 17.3245 49.5118 17.012C49.8244 16.6994 50 16.2755 50 15.8334V3.33345C50 2.89142 49.8244 2.4675 49.5118 2.15494C49.1993 1.84237 48.7754 1.66678 48.3333 1.66678ZM36.6667 43.3335V48.3335H1.66667V43.3335H4.16667V45.0001C4.16667 45.4421 4.34226 45.8661 4.65482 46.1786C4.96738 46.4912 5.39131 46.6668 5.83333 46.6668H32.5C32.942 46.6668 33.366 46.4912 33.6785 46.1786C33.9911 45.8661 34.1667 45.4421 34.1667 45.0001V43.3335H36.6667ZM32.5 45.0001H5.83333V14.1668C5.83333 13.9458 5.92113 13.7338 6.07741 13.5775C6.23369 13.4212 6.44565 13.3334 6.66667 13.3334H26.0167L19.0525 16.3801C18.5987 16.579 18.19 16.8681 17.8513 17.2298C17.5127 17.5915 17.2511 18.0183 17.0825 18.4842C16.9139 18.9502 16.8418 19.4456 16.8706 19.9402C16.8994 20.4349 17.0285 20.9185 17.25 21.3618C17.6663 22.1872 18.379 22.8249 19.2454 23.1472C20.1118 23.4696 21.068 23.4527 21.9225 23.1001L32.5 18.5384V45.0001ZM28.6733 11.6668H16.1783L17.345 10.5001C17.6833 10.1592 18.1335 9.95203 18.6125 9.91678L27.0125 9.31678C27.4212 9.29197 27.8251 9.41481 28.1508 9.66291C28.4764 9.91102 28.7021 10.2679 28.7867 10.6684C28.8522 11.005 28.8126 11.3535 28.6733 11.6668ZM35.77 15.3134L21.27 21.5634C20.8058 21.7531 20.2871 21.7609 19.8174 21.5851C19.3477 21.4093 18.9615 21.063 18.7358 20.6151C18.6154 20.374 18.5452 20.111 18.5295 19.8419C18.5139 19.5729 18.5532 19.3035 18.6449 19.0501C18.7366 18.7966 18.879 18.5645 19.0632 18.3679C19.2475 18.1712 19.4698 18.014 19.7167 17.9059L28.4717 14.0726C29.1959 13.7556 29.7847 13.1928 30.1343 12.4838C30.484 11.7747 30.5718 10.965 30.3824 10.1974C30.1931 9.42991 29.7386 8.75397 29.0993 8.28895C28.4599 7.82393 27.6769 7.59974 26.8883 7.65595L18.4883 8.25678C17.6113 8.32146 16.787 8.70017 16.1667 9.32345L13.8217 11.6668H10.3658L11.8892 7.57261C12.0239 7.20897 12.2328 6.87735 12.5027 6.59887C12.7725 6.32039 13.0974 6.10115 13.4567 5.95511L23.5942 1.86678C24.037 1.6873 24.5191 1.62697 24.9925 1.69178L41.6667 4.05678V15.0001H37.2842C36.7633 14.9994 36.2478 15.1061 35.77 15.3134ZM43.3333 15.8334V3.33345H48.3333V15.8334H43.3333Z" fill="#FB8C00"/>
<path id="Vector_2" d="M13.922 33.5777C13.7649 33.4259 13.5544 33.3419 13.3359 33.3438C13.1174 33.3457 12.9083 33.4333 12.7538 33.5878C12.5993 33.7423 12.5117 33.9513 12.5098 34.1698C12.5079 34.3883 12.5919 34.5988 12.7437 34.756L15.2437 37.256C15.3999 37.4123 15.6119 37.5001 15.8329 37.5002H15.8829C16.0003 37.4931 16.115 37.4612 16.2193 37.4066C16.3236 37.3521 16.4151 37.276 16.4879 37.1835L25.6545 25.5168C25.7867 25.3427 25.8453 25.1237 25.8175 24.9069C25.7897 24.69 25.6778 24.4928 25.506 24.3577C25.3341 24.2226 25.1161 24.1604 24.8988 24.1845C24.6816 24.2087 24.4825 24.3173 24.3445 24.4868L15.7579 35.4168L13.922 33.5777Z" fill="#FB8C00"/>
</g>
</g>
<defs>
<clipPath id="clip0_6795_900">
<rect width="50" height="50" fill="white"/>
</clipPath>
</defs>
</svg>
