<svg width="50" height="50" viewBox="0 0 50 50" fill="none" xmlns="http://www.w3.org/2000/svg">
<g id="Frame">
<g id="Group">
<path id="Vector" d="M21.6935 2.08325C17.9695 2.08325 14.9393 5.11867 14.9393 8.84575V10.6645H13.1247C11.2987 10.6645 10.4601 11.9385 10.1903 13.4562L6.38514 38.2468C6.03097 40.2635 7.64868 41.353 9.31951 41.353H19.032C19.3083 41.353 19.5732 41.2433 19.7686 41.0479C19.9639 40.8526 20.0737 40.5877 20.0737 40.3114C20.0737 40.0351 19.9639 39.7702 19.7686 39.5748C19.5732 39.3795 19.3083 39.2697 19.032 39.2697H9.31847C8.70597 39.2697 8.38097 38.9187 8.44347 38.5635L12.2518 13.7718C12.3591 13.1145 12.7424 12.7478 13.1247 12.7478H14.9393V17.427C14.9393 17.7033 15.0491 17.9682 15.2444 18.1636C15.4398 18.3589 15.7047 18.4687 15.981 18.4687C16.2572 18.4687 16.5222 18.3589 16.7175 18.1636C16.9129 17.9682 17.0226 17.7033 17.0226 17.427V12.7478H26.3633V17.427C26.3633 17.7033 26.473 17.9682 26.6684 18.1636C26.8637 18.3589 27.1287 18.4687 27.4049 18.4687C27.6812 18.4687 27.9461 18.3589 28.1415 18.1636C28.3368 17.9682 28.4466 17.7033 28.4466 17.427V12.7478H30.2612C30.9153 12.7572 31.0466 13.2624 31.1362 13.7718L32.5622 23.0614C32.5831 23.1966 32.6304 23.3264 32.7014 23.4433C32.7724 23.5603 32.8658 23.6621 32.9761 23.743C33.0865 23.8238 33.2117 23.8821 33.3446 23.9146C33.4775 23.9471 33.6155 23.9531 33.7508 23.9322C33.886 23.9114 34.0158 23.8641 34.1327 23.793C34.2497 23.722 34.3515 23.6287 34.4323 23.5183C34.5132 23.4079 34.5715 23.2827 34.604 23.1498C34.6365 23.0169 34.6425 22.8789 34.6216 22.7437L33.1945 13.4562C32.8591 11.7187 31.7914 10.6645 30.2612 10.6645H28.4466V8.84575C28.4466 5.11867 25.4185 2.08325 21.6935 2.08325ZM21.6935 4.16659C24.2976 4.16659 26.3633 6.23429 26.3633 8.84575V10.6645H17.0226V8.84575C17.0178 8.23063 17.1352 7.62067 17.3682 7.05133C17.6011 6.48199 17.9448 5.9646 18.3794 5.52924C18.814 5.09389 19.3307 4.74923 19.8997 4.5153C20.4686 4.28137 21.0783 4.16284 21.6935 4.16659Z" fill="#FB8C00"/>
<path id="Vector_2" d="M32.7734 26.1458C26.7714 26.1458 21.8828 31.0322 21.8828 37.0312C21.8828 43.0312 26.7714 47.9166 32.7734 47.9166C38.7755 47.9166 43.6641 43.0312 43.6641 37.0312C43.6641 31.0312 38.7755 26.1458 32.7734 26.1458ZM32.7734 28.2291C37.6505 28.2291 41.5807 32.1583 41.5807 37.0312C41.5807 41.9041 37.6505 45.8333 32.7734 45.8333C31.6166 45.8357 30.4706 45.6098 29.4013 45.1684C28.332 44.727 27.3603 44.0788 26.5421 43.261C25.7238 42.4432 25.0751 41.472 24.633 40.4029C24.191 39.3338 23.9644 38.188 23.9661 37.0312C23.9645 35.8744 24.1912 34.7286 24.6333 33.6596C25.0754 32.5906 25.7242 31.6194 26.5424 30.8016C27.3606 29.9839 28.3322 29.3357 29.4015 28.8943C30.4707 28.4528 31.6166 28.2268 32.7734 28.2291Z" fill="#FB8C00"/>
<path id="Vector_3" d="M36.1189 33.2625L31.647 38.5844L29.3741 36.275C29.1792 36.0832 28.9167 35.9756 28.6432 35.9756C28.3698 35.9756 28.1073 36.0832 27.9124 36.275C27.7175 36.4669 27.6059 36.7277 27.6017 37.0011C27.5974 37.2745 27.7009 37.5387 27.8897 37.7365L30.9657 40.8615C31.0676 40.9648 31.1898 41.0457 31.3247 41.099C31.4596 41.1523 31.6042 41.1768 31.7491 41.1711C31.894 41.1653 32.0362 41.1293 32.1664 41.0654C32.2966 41.0015 32.412 40.9111 32.5053 40.8L37.7136 34.6021C37.8018 34.4973 37.8684 34.3762 37.9096 34.2456C37.9509 34.115 37.966 33.9776 37.9541 33.8412C37.9422 33.7048 37.9035 33.572 37.8403 33.4506C37.777 33.3291 37.6905 33.2213 37.5855 33.1334C37.0782 32.7334 36.5324 32.8052 36.1189 33.2625Z" fill="#FB8C00"/>
</g>
</g>
</svg>
